<?xml version="1.0" standalone="no"?><!DOCTYPE svg PUBLIC "-//W3C//DTD SVG 1.1//EN" "http://www.w3.org/Graphics/SVG/1.1/DTD/svg11.dtd"><svg t="1520567624504" class="icon" style="" viewBox="0 0 1024 1024" version="1.1" xmlns="http://www.w3.org/2000/svg" p-id="3425" data-spm-anchor-id="a313x.7781069.0.i8" xmlns:xlink="http://www.w3.org/1999/xlink" width="200" height="200"><defs><style type="text/css"></style></defs><path d="M512 128c-212.053333 0-384 171.946667-384 384 0 212.053333 171.946667 384 384 384 212.096 0 384-171.946667 384-384C896 299.904 724.053333 128 512 128zM672 316.416c29.44 0 53.333333 23.936 53.333333 53.333333s-23.893333 53.333333-53.333333 53.333333-53.333333-23.936-53.333333-53.333333S642.56 316.416 672 316.416zM352 316.416c29.44 0 53.333333 23.936 53.333333 53.333333s-23.893333 53.333333-53.333333 53.333333S298.666667 399.146667 298.666667 369.749333 322.56 316.416 352 316.416zM512 768c-250.752 0-256-213.333333-256-213.333333l512 0C768 554.666667 762.752 768 512 768z" p-id="3426" data-spm-anchor-id="a313x.7781069.0.i7" class="selected" fill="#7cba59"></path></svg>